<?xml version="1.0" encoding="UTF-8"?>
<svg id="Layer_2" data-name="Layer 2" xmlns="http://www.w3.org/2000/svg" viewBox="0 0 250 250">
  <defs>
    <style>
      .cls-1 {
        fill: #ebf4f7;
      }

      .cls-2 {
        fill: #002232;
      }
    </style>
  </defs>
  <g id="Layer_1-2" data-name="Layer 1">
    <g>
      <rect class="cls-1" width="250" height="250" rx="50" ry="50"/>
      <g>
        <path class="cls-2" d="m57.5,102.68h13.77c2.64,0,5.01.5,7.12,1.49,2.1.99,3.76,2.43,4.96,4.32,1.21,1.88,1.81,4.12,1.81,6.7s-.65,4.99-1.94,7.12c-1.29,2.12-3.11,3.76-5.47,4.91l10.9,20.11h-8.03l-9.73-18.39c-.25.02-.64.03-1.18.03h-5.22v18.36h-7v-44.65Zm12.97,20.37c1.53,0,2.88-.29,4.05-.88,1.17-.58,2.08-1.41,2.73-2.47.65-1.06.98-2.3.98-3.72s-.34-2.67-1.02-3.72c-.68-1.04-1.63-1.84-2.84-2.4-1.21-.55-2.63-.83-4.23-.83h-5.62v14h5.97Z"/>
        <path class="cls-2" d="m97.2,145.2c-2.44-1.42-4.36-3.34-5.77-5.77-1.41-2.43-2.11-5.1-2.11-8.01s.7-5.5,2.11-7.89c1.41-2.39,3.32-4.28,5.75-5.65,2.43-1.38,5.11-2.07,8.03-2.07s5.56.69,8.01,2.07c2.45,1.38,4.39,3.26,5.81,5.65,1.42,2.39,2.14,5.02,2.14,7.89s-.72,5.55-2.15,7.99c-1.43,2.44-3.37,4.37-5.81,5.78-2.44,1.42-5.1,2.12-7.99,2.12s-5.58-.71-8.02-2.12Zm12.74-5.19c1.44-.9,2.59-2.11,3.43-3.64.84-1.53,1.26-3.19,1.26-4.99s-.43-3.4-1.28-4.86c-.85-1.46-1.99-2.62-3.43-3.46-1.43-.84-3-1.26-4.71-1.26s-3.32.43-4.73,1.28c-1.42.85-2.53,2.01-3.34,3.49-.81,1.47-1.22,3.1-1.22,4.88s.41,3.45,1.22,4.96c.81,1.51,1.93,2.72,3.36,3.62,1.42.9,3,1.35,4.72,1.35s3.28-.45,4.72-1.35Z"/>
        <path class="cls-2" d="m149.35,142.79h-.11c-1.19,1.45-2.61,2.57-4.26,3.36-1.65.78-3.52,1.18-5.61,1.18-2.77,0-5.31-.68-7.6-2.05-2.3-1.37-4.11-3.25-5.44-5.65-1.33-2.4-1.99-5.09-1.99-8.08s.67-5.71,2.02-8.12c1.35-2.41,3.18-4.29,5.49-5.64,2.31-1.35,4.86-2.02,7.63-2.02,2.05,0,3.9.38,5.55,1.15,1.65.77,3.07,1.86,4.23,3.27h.09v-3.9h6.6v30.59h-6.6v-4.07Zm-4.43-2.68c1.33-.79,2.38-1.92,3.16-3.39.77-1.46,1.16-3.17,1.16-5.12s-.38-3.67-1.15-5.15c-.77-1.48-1.82-2.63-3.17-3.44-1.35-.81-2.87-1.22-4.58-1.22s-3.35.42-4.76,1.25c-1.42.83-2.52,1.98-3.3,3.46-.78,1.47-1.18,3.14-1.18,4.99s.39,3.47,1.16,4.96,1.87,2.67,3.3,3.54c1.42.87,3.04,1.31,4.83,1.31,1.68,0,3.19-.4,4.52-1.19Z"/>
        <path class="cls-2" d="m185.96,146.86v-4.13h-.14c-1.17,1.45-2.58,2.58-4.25,3.39-1.66.8-3.55,1.21-5.65,1.21-2.77,0-5.31-.68-7.6-2.05-2.3-1.37-4.11-3.25-5.44-5.65-1.33-2.4-1.99-5.09-1.99-8.08s.67-5.71,2.02-8.12c1.35-2.41,3.18-4.29,5.49-5.64,2.31-1.35,4.86-2.02,7.63-2.02,1.99,0,3.8.36,5.42,1.09,1.63.73,3.01,1.76,4.16,3.1h.11v-17.27h6.77v44.19h-6.54Zm-4.49-6.76c1.33-.79,2.38-1.92,3.16-3.39.77-1.46,1.16-3.17,1.16-5.12s-.38-3.67-1.15-5.15c-.77-1.48-1.82-2.63-3.17-3.44-1.35-.81-2.87-1.22-4.58-1.22s-3.35.42-4.76,1.25c-1.42.83-2.52,1.98-3.3,3.46-.78,1.47-1.18,3.14-1.18,4.99s.39,3.47,1.16,4.96,1.87,2.67,3.3,3.54c1.42.87,3.04,1.31,4.83,1.31,1.68,0,3.19-.4,4.52-1.19Z"/>
      </g>
    </g>
  </g>
</svg>