<?xml version="1.0" encoding="UTF-8"?>
<svg id="Layer_2" data-name="Layer 2" xmlns="http://www.w3.org/2000/svg" viewBox="0 0 100 100">
  <defs>
    <style>
      .cls-1 {
        fill: #002232;
      }

      .cls-2 {
        fill: #32ee88;
      }
    </style>
  </defs>
  <g id="Layer_1-2" data-name="Layer 1">
    <g>
      <rect class="cls-1" width="100" height="100" rx="25" ry="25"/>
      <g>
        <path class="cls-2" d="m63.64,67.5c4.82,0,9.37,2.04,12.81,5.73l8.52,9.14s.04.08.03.13H15s0-.1.03-.13l8.52-9.14c3.44-3.7,7.99-5.73,12.81-5.73h27.28m0-5h-27.28c-6.18,0-12.1,2.63-16.47,7.32l-8.52,9.14c-2.93,3.15-.86,8.54,3.29,8.54h70.67c4.15,0,6.23-5.39,3.29-8.54l-8.52-9.14c-4.37-4.69-10.29-7.32-16.47-7.32h0Z"/>
        <path class="cls-2" d="m50,17.5c11.03,0,20,8.97,20,20s-8.97,20-20,20-20-8.97-20-20,8.97-20,20-20m0-5h0c-13.81,0-25,11.19-25,25h0c0,13.81,11.19,25,25,25h0c13.81,0,25-11.19,25-25h0c0-13.81-11.19-25-25-25h0Z"/>
      </g>
    </g>
  </g>
</svg>