<?xml version="1.0" encoding="UTF-8"?>
<svg id="Layer_2" data-name="Layer 2" xmlns="http://www.w3.org/2000/svg" viewBox="0 0 600 99.27">
  <defs>
    <style>
      .cls-1 {
        fill: #fff;
      }

      .cls-2 {
        fill: #32ee88;
      }
    </style>
  </defs>
  <g id="Layer_1-2" data-name="Layer 1">
    <g>
      <path class="cls-1" d="m57.2,43.64c2.87-4.72,4.31-9.99,4.31-15.82s-1.34-10.71-4.02-14.9c-2.68-4.19-6.36-7.39-11.04-9.6-4.68-2.21-9.95-3.32-15.82-3.32H0v99.27h15.57v-40.83h11.61c1.19,0,2.06-.02,2.62-.06l21.63,40.89h17.86l-24.24-44.72c5.23-2.55,9.28-6.19,12.15-10.91Zm-19.36-.29c-2.59,1.3-5.59,1.95-9,1.95h-13.27V14.16h12.5c3.57,0,6.71.62,9.41,1.85,2.7,1.23,4.81,3.01,6.32,5.33,1.51,2.32,2.26,5.07,2.26,8.26s-.72,5.9-2.17,8.26c-1.45,2.36-3.47,4.19-6.06,5.49Z"/>
      <path class="cls-1" d="m122.43,33.81c-5.44-3.06-11.38-4.59-17.8-4.59s-12.46,1.53-17.86,4.59c-5.4,3.06-9.67,7.25-12.79,12.57-3.13,5.32-4.69,11.16-4.69,17.54s1.56,12.4,4.69,17.8c3.13,5.4,7.4,9.68,12.82,12.82,5.42,3.15,11.37,4.72,17.83,4.72s12.35-1.57,17.77-4.72c5.42-3.15,9.73-7.43,12.92-12.86,3.19-5.42,4.78-11.35,4.78-17.77s-1.59-12.23-4.75-17.54c-3.17-5.32-7.48-9.51-12.92-12.57Zm.32,41.09c-1.87,3.4-4.41,6.1-7.62,8.1-3.21,2-6.71,3-10.49,3s-7.33-1-10.49-3c-3.17-2-5.66-4.68-7.46-8.04-1.81-3.36-2.71-7.04-2.71-11.04s.9-7.57,2.71-10.85c1.81-3.27,4.28-5.86,7.43-7.75,3.15-1.89,6.66-2.84,10.53-2.84s7.27.94,10.46,2.81c3.19,1.87,5.73,4.43,7.62,7.69,1.89,3.25,2.84,6.86,2.84,10.81s-.94,7.7-2.81,11.1Z"/>
      <path class="cls-1" d="m206.74,38.92h-.19c-2.59-3.15-5.73-5.57-9.41-7.27-3.68-1.7-7.79-2.55-12.35-2.55-6.17,0-11.82,1.5-16.97,4.5-5.15,3-9.22,7.18-12.22,12.54-3,5.36-4.5,11.38-4.5,18.06s1.48,12.62,4.43,17.96c2.96,5.34,6.99,9.53,12.09,12.57,5.1,3.04,10.74,4.56,16.91,4.56,4.64,0,8.79-.87,12.47-2.62,3.68-1.74,6.84-4.23,9.47-7.46h.26v9.06h14.67V30.24h-14.67v8.68Zm-2.84,36.78c-1.72,3.25-4.06,5.76-7.02,7.53-2.96,1.77-6.31,2.65-10.05,2.65-4,0-7.58-.97-10.75-2.9-3.17-1.93-5.61-4.56-7.34-7.88s-2.58-7-2.58-11.04.87-7.83,2.62-11.1c1.74-3.27,4.19-5.84,7.34-7.69,3.15-1.85,6.68-2.78,10.59-2.78s7.18.9,10.18,2.71c3,1.81,5.35,4.36,7.05,7.66,1.7,3.3,2.55,7.11,2.55,11.45s-.86,8.13-2.58,11.39Z"/>
      <path class="cls-1" d="m287.64,38.41h-.26c-2.55-2.98-5.64-5.27-9.25-6.89-3.62-1.62-7.63-2.42-12.06-2.42-6.17,0-11.82,1.5-16.97,4.5-5.15,3-9.22,7.18-12.22,12.54-3,5.36-4.5,11.38-4.5,18.06s1.48,12.62,4.43,17.96c2.96,5.34,6.99,9.53,12.09,12.57,5.1,3.04,10.74,4.56,16.91,4.56,4.68,0,8.87-.89,12.57-2.68,3.7-1.79,6.85-4.3,9.44-7.53h.32v9.19h14.55V0h-15.06v38.41Zm-2.46,37.29c-1.72,3.25-4.06,5.76-7.02,7.53-2.96,1.77-6.31,2.65-10.05,2.65-4,0-7.58-.97-10.75-2.9-3.17-1.93-5.61-4.56-7.34-7.88s-2.58-7-2.58-11.04.87-7.83,2.62-11.1c1.74-3.27,4.19-5.84,7.34-7.69,3.15-1.85,6.68-2.78,10.59-2.78s7.18.9,10.18,2.71c3,1.81,5.35,4.36,7.05,7.66,1.7,3.3,2.55,7.11,2.55,11.45s-.86,8.13-2.58,11.39Z"/>
      <path class="cls-2" d="m335.67,24.82v49.64c0,13.71,11.11,24.82,24.82,24.82h50.47v-57.16h-39.05v15.06h23.99v27.05h-30.28c-8.22,0-14.89-6.67-14.89-14.89V29.95c0-8.22,6.67-14.89,14.89-14.89h45.34V0h-50.47c-13.71,0-24.82,11.11-24.82,24.82Z"/>
      <path class="cls-2" d="m585.11,0h-142.78c-8.22,0-14.89,6.67-14.89,14.89v69.49c0,8.22,6.67,14.89,14.89,14.89h142.78c8.22,0,14.89-6.67,14.89-14.89V14.89c0-8.22-6.67-14.89-14.89-14.89Zm-.16,84.21h-142.45V15.06h142.45v69.15Z"/>
      <rect class="cls-2" x="483.94" y="42.11" width="59.56" height="15.06"/>
    </g>
  </g>
</svg>