<?xml version="1.0" encoding="UTF-8"?>
<svg id="Layer_2" data-name="Layer 2" xmlns="http://www.w3.org/2000/svg" viewBox="0 0 300 435.01">
  <defs>
    <style>
      .cls-1 {
        fill: #32ee88;
      }
    </style>
  </defs>
  <g id="Layer_1-2" data-name="Layer 1">
    <g>
      <path class="cls-1" d="m291.47,401.92v11.45c-2.17.08-4.34.12-6.52.12-4.3,0-8.61-.16-12.88-.46l-3.54-.24.83-11.43,3.52.26c6.22.44,12.46.55,18.59.3Z"/>
      <path class="cls-1" d="m228.16,392.17l-3.65,10.84,3.35,1.13c8.61,2.91,17.58,5.18,26.65,6.74l3.49.61,1.94-11.28-3.49-.6c-8.46-1.47-16.86-3.6-24.92-6.32l-3.36-1.13Z"/>
      <path class="cls-1" d="m186.65,369.02l-6.97,9.07,2.82,2.16c8.68,6.64,18.3,12.43,28.6,17.21l3.22,1.49,4.81-10.39-3.22-1.48c-9.54-4.43-18.45-9.77-26.46-15.91l-2.8-2.15Z"/>
      <path class="cls-1" d="m168.82,368.26l2.49,2.51,8.11-8.06-2.5-2.52c-9.98-10.04-17.74-21.47-23.08-33.96l-1.39-3.26-10.52,4.5,1.39,3.26c5.91,13.84,14.49,26.46,25.5,37.53Z"/>
      <path class="cls-1" d="m137.46,270.73c-2.55,14.31-2.31,29.21.71,43.09l.75,3.46,11.19-2.44-.76-3.46c-2.7-12.43-2.91-25.79-.62-38.64l.63-3.49-11.28-2-.62,3.49Z"/>
      <path class="cls-1" d="m160.44,218.76c-8.1,10.5-14.38,22.31-18.66,35.09l-1.12,3.36,10.85,3.63,1.12-3.36c3.86-11.55,9.54-22.22,16.87-31.71l2.16-2.8-9.05-7.01-2.17,2.8Z"/>
      <path class="cls-1" d="m180.43,213.58c4.82-4.55,10.37-8.44,16.25-12.57,4.09-2.88,8.34-5.86,12.66-9.26l2.78-2.19-7.06-8.99-2.78,2.19c-4.14,3.26-8.22,6.12-12.17,8.9-5.92,4.16-12.05,8.46-17.5,13.58l-2.58,2.43,7.84,8.34,2.58-2.43Z"/>
      <path class="cls-1" d="m237.58,154.54c-5.98,5.74-12.72,11.43-21.25,17.9l-2.82,2.14,6.9,9.12,2.83-2.14c8.88-6.73,15.96-12.69,22.27-18.76l2.55-2.46-7.93-8.24-2.55,2.45Z"/>
      <path class="cls-1" d="m246.49,145.31l8.9,7.19,2.22-2.75c7.85-9.69,13.47-19.97,16.73-30.54l1.04-3.38-10.94-3.37-1.04,3.38c-2.83,9.18-7.77,18.17-14.68,26.7l-2.23,2.76Z"/>
      <path class="cls-1" d="m265.41,100.81l-.08,3.54,11.43.3.09-3.54c.28-11.01-1.58-21.96-5.52-32.55l-1.24-3.32-10.72,3.99,1.24,3.32c3.43,9.2,5.04,18.71,4.8,28.26Z"/>
      <path class="cls-1" d="m238.02,32.04l-3.11-1.7-5.5,10.03,3.1,1.71c7.82,4.29,14.82,10.27,20.24,17.3l2.17,2.79,9.06-6.99-2.17-2.8c-6.39-8.26-14.62-15.3-23.79-20.34Z"/>
      <path class="cls-1" d="m186.05,20.44l.15,11.44,3.54-.05c9.88-.19,19.45,1.27,28.6,4.2l3.38,1.08,3.46-10.92-3.37-1.07c-10.31-3.28-21.27-4.93-32.22-4.73l-3.54.05Z"/>
      <path class="cls-1" d="m143.69,29.73l-3.27,1.34,4.31,10.61,3.28-1.34c8.41-3.43,17.32-5.87,26.45-7.25l3.5-.53-1.72-11.31-3.49.53c-10.04,1.52-19.82,4.2-29.06,7.96Z"/>
      <path class="cls-1" d="m111.36,63.98c6.77-6.54,14.55-12.29,23.13-17.11l3.09-1.74-5.62-9.97-3.08,1.73c-9.41,5.28-17.97,11.63-25.47,18.87l-2.54,2.45,7.94,8.23,2.55-2.46Z"/>
      <path class="cls-1" d="m85.58,98.83c4.24-7.95,9.02-15.33,14.19-21.96l2.18-2.78-9.01-7.07-2.19,2.8c-5.56,7.12-10.7,15.07-15.27,23.61l-1.67,3.13,10.1,5.38,1.67-3.12Z"/>
      <path class="cls-1" d="m68.94,139.16c2.7-8.41,5.5-16.04,8.58-23.35l1.37-3.26-10.54-4.45-1.37,3.26c-3.22,7.63-6.14,15.57-8.94,24.3l-1.08,3.37,10.89,3.49,1.09-3.37Z"/>
      <path class="cls-1" d="m56.79,184.05c2.09-8.69,4.39-18.03,6.97-27.41l.94-3.42-11.03-3.02-.94,3.41c-2.62,9.52-4.94,18.97-7.06,27.76l-.83,3.44,11.12,2.68.83-3.44Z"/>
      <path class="cls-1" d="m41.66,200.78c-1.79,9.37-3.48,19.18-5.15,30l-.54,3.5,11.3,1.74.53-3.49c1.66-10.67,3.32-20.35,5.09-29.61l.67-3.49-11.25-2.13-.66,3.48Z"/>
      <path class="cls-1" d="m45.6,247.55l-11.34-1.53-.48,3.51c-1.27,9.5-2.45,19.19-3.6,29.64l-.38,3.52,11.37,1.25.39-3.52c1.12-10.36,2.3-19.96,3.57-29.37l.47-3.5Z"/>
      <path class="cls-1" d="m28.46,296.15c-.99,10.27-1.88,21.02-2.67,31.96l-.26,3.53,11.42.84.26-3.53c.78-10.85,1.68-21.52,2.65-31.71l.34-3.53-11.4-1.09-.33,3.53Z"/>
      <path class="cls-1" d="m24.65,345.2c-.69,11.4-1.29,23.24-1.75,35.18l-.14,3.54,11.44.43.14-3.53c.46-11.85,1.03-23.6,1.72-34.93l.22-3.53-11.42-.7-.21,3.54Z"/>
      <path class="cls-1" d="m33.79,396.81c-.36,12.68-.53,22.49-.53,31.72h.02v6.48h-11.46v-6.48c0-9.32.17-19.24.54-32.04l.1-3.54,11.43.34-.1,3.52Z"/>
      <path class="cls-1" d="m291.47,423.57v11.44c-45.52-.89-126.82-22.91-160.46-80.01-13.71-23.26-20.3-56.94-16.4-83.8,3.3-22.66,13.02-44.97,28.09-64.5,15.32-19.83,35.52-34.19,55.07-48.07,4.29-3.05,8.15-5.78,11.97-8.57,12.09-8.82,49.86-40.2,28.65-74.03-8.75-13.91-25.82-20.96-50.74-20.96s-45.49,8.51-62.94,26.02C56.66,149.32,55.09,409.99,55.07,428.53v6.48h-11.44v-6.48c0-10.72.42-77.76,8.83-151.95,11.86-104.3,33.43-172.79,64.13-203.58,19.71-19.78,42.96-29.39,71.05-29.39s49.48,8.87,60.42,26.34c26.48,42.21-17.48,79.06-31.59,89.34-3.62,2.65-7.27,5.25-10.92,7.86l-1.14.81c-18.87,13.4-38.38,27.25-52.65,45.73-13.88,17.98-22.82,38.43-25.82,59.14-3.56,24.48,2.44,55.15,14.94,76.35,31.24,53.02,107.61,73.52,150.59,74.38Z"/>
      <path class="cls-1" d="m177.53,253.99c-14.56,27.53-14.01,70.38,12.29,91.61,18.09,14.6,73.42,33.1,101.65,34.33v11.45c-30.52-1.21-88.94-20.82-108.83-36.88-30.83-24.88-31.9-74.33-15.2-105.86,12.35-23.34,33.49-39.73,54.49-53.96,21.16-14.34,43.02-29.15,60.94-66.24,8.63-17.84,8.81-49.55-7.53-75.59-11.86-18.89-36.69-41.41-87.69-41.41-36.56,0-68.14,13.07-93.83,38.84-36.22,36.33-60.76,98.7-72.92,185.38-9.09,64.81-9.47,171.09-9.44,192.87v3.96s0,2.52,0,2.52H0v-6.48c0-23.14.47-129.56,9.57-194.44C22.08,144.89,47.7,80.32,85.7,42.21,113.63,14.2,147.92,0,187.64,0c56.22,0,84,25.44,97.38,46.77,18.54,29.56,18.14,65.97,8.14,86.65-19.28,39.88-42.43,55.56-64.84,70.74-19.75,13.4-39.58,28.69-50.79,49.83Z"/>
    </g>
  </g>
</svg>