<?xml version="1.0" encoding="UTF-8"?>
<svg id="Layer_2" data-name="Layer 2" xmlns="http://www.w3.org/2000/svg" viewBox="0 0 1746.71 876.28">
  <defs>
    <style>
      .cls-1 {
        fill: #32ee88;
      }
    </style>
  </defs>
  <g id="Layer_1-2" data-name="Layer 1">
    <g>
      <path class="cls-1" d="m814.81,825.14v-50.39c0-13.91,11.28-25.19,25.19-25.19h102.28c13.91,0,25.19,11.28,25.19,25.19v50.39c0,13.91-11.28,25.19-25.19,25.19h-102.28c-13.91,0-25.19-11.28-25.19-25.19Zm16.8-58.78v67.18h119.08v-67.18h-119.08Z"/>
      <path class="cls-1" d="m1051.21,876.28h-50.39c-13.91,0-25.19-11.28-25.19-25.19v-102.28c0-13.91,11.28-25.19,25.19-25.19h50.39c13.91,0,25.19,11.28,25.19,25.19v102.28c0,13.91-11.28,25.19-25.19,25.19Zm-58.78-16.8h67.18v-119.08h-67.18v119.08Z"/>
      <path class="cls-1" d="m1084.56,825.14v-50.39c0-13.91,11.28-25.19,25.19-25.19h102.28c13.91,0,25.19,11.28,25.19,25.19v50.39c0,13.91-11.28,25.19-25.19,25.19h-102.28c-13.91,0-25.19-11.28-25.19-25.19Zm16.8-58.78v67.18h119.08v-67.18h-119.08Z"/>
      <path class="cls-1" d="m1320.96,876.28h-50.39c-13.91,0-25.19-11.28-25.19-25.19v-102.28c0-13.91,11.28-25.19,25.19-25.19h50.39c13.91,0,25.19,11.28,25.19,25.19v102.28c0,13.91-11.28,25.19-25.19,25.19Zm-58.78-16.8h67.18v-119.08h-67.18v119.08Z"/>
      <path class="cls-1" d="m1354.31,825.14v-50.39c0-13.91,11.28-25.19,25.19-25.19h102.28c13.91,0,25.19,11.28,25.19,25.19v50.39c0,13.91-11.28,25.19-25.19,25.19h-102.28c-13.91,0-25.19-11.28-25.19-25.19Zm16.8-58.78v67.18h119.08v-67.18h-119.08Z"/>
      <path class="cls-1" d="m1590.72,876.28h-50.39c-13.91,0-25.19-11.28-25.19-25.19v-102.28c0-13.91,11.28-25.19,25.19-25.19h50.39c13.91,0,25.19,11.28,25.19,25.19v102.28c0,13.91-11.28,25.19-25.19,25.19Zm-58.78-16.8h67.18v-119.08h-67.18v119.08Z"/>
      <path class="cls-1" d="m945.61,680.42v-50.39c0-13.91,11.28-25.19,25.19-25.19h102.28c13.91,0,25.19,11.28,25.19,25.19v50.39c0,13.91-11.28,25.19-25.19,25.19h-102.28c-13.91,0-25.19-11.28-25.19-25.19Zm16.8-58.78v67.18h119.08v-67.18h-119.08Z"/>
      <path class="cls-1" d="m1182.01,731.56h-50.39c-13.91,0-25.19-11.28-25.19-25.19v-102.28c0-13.91,11.28-25.19,25.19-25.19h50.39c13.91,0,25.19,11.28,25.19,25.19v102.28c0,13.91-11.28,25.19-25.19,25.19Zm-58.78-16.8h67.18v-119.08h-67.18v119.08Z"/>
      <path class="cls-1" d="m1215.36,680.42v-50.39c0-13.91,11.28-25.19,25.19-25.19h102.28c13.91,0,25.19,11.28,25.19,25.19v50.39c0,13.91-11.28,25.19-25.19,25.19h-102.28c-13.91,0-25.19-11.28-25.19-25.19Zm16.8-58.78v67.18h119.08v-67.18h-119.08Z"/>
      <path class="cls-1" d="m1451.76,731.56h-50.39c-13.91,0-25.19-11.28-25.19-25.19v-102.28c0-13.91,11.28-25.19,25.19-25.19h50.39c13.91,0,25.19,11.28,25.19,25.19v102.28c0,13.91-11.28,25.19-25.19,25.19Zm-58.78-16.8h67.18v-119.08h-67.18v119.08Z"/>
      <path class="cls-1" d="m1485.11,680.42v-50.39c0-13.91,11.28-25.19,25.19-25.19h102.28c13.91,0,25.19,11.28,25.19,25.19v50.39c0,13.91-11.28,25.19-25.19,25.19h-102.28c-13.91,0-25.19-11.28-25.19-25.19Zm16.8-58.78v67.18h119.08v-67.18h-119.08Z"/>
      <path class="cls-1" d="m1721.52,731.56h-50.39c-13.91,0-25.19-11.28-25.19-25.19v-102.28c0-13.91,11.28-25.19,25.19-25.19h50.39c13.91,0,25.19,11.28,25.19,25.19v102.28c0,13.91-11.28,25.19-25.19,25.19Zm-58.78-16.8h67.18v-119.08h-67.18v119.08Z"/>
      <path class="cls-1" d="m814.81,535.7v-50.39c0-13.91,11.28-25.19,25.19-25.19h102.28c13.91,0,25.19,11.28,25.19,25.19v50.39c0,13.91-11.28,25.19-25.19,25.19h-102.28c-13.91,0-25.19-11.28-25.19-25.19Zm16.8-58.78v67.18h119.08v-67.18h-119.08Z"/>
      <path class="cls-1" d="m1051.21,586.84h-50.39c-13.91,0-25.19-11.28-25.19-25.19v-102.28c0-13.91,11.28-25.19,25.19-25.19h50.39c13.91,0,25.19,11.28,25.19,25.19v102.28c0,13.91-11.28,25.19-25.19,25.19Zm-58.78-16.8h67.18v-119.08h-67.18v119.08Z"/>
      <path class="cls-1" d="m1084.56,535.7v-50.39c0-13.91,11.28-25.19,25.19-25.19h102.28c13.91,0,25.19,11.28,25.19,25.19v50.39c0,13.91-11.28,25.19-25.19,25.19h-102.28c-13.91,0-25.19-11.28-25.19-25.19Zm16.8-58.78v67.18h119.08v-67.18h-119.08Z"/>
      <path class="cls-1" d="m1320.96,586.84h-50.39c-13.91,0-25.19-11.28-25.19-25.19v-102.28c0-13.91,11.28-25.19,25.19-25.19h50.39c13.91,0,25.19,11.28,25.19,25.19v102.28c0,13.91-11.28,25.19-25.19,25.19Zm-58.78-16.8h67.18v-119.08h-67.18v119.08Z"/>
      <path class="cls-1" d="m1354.31,535.7v-50.39c0-13.91,11.28-25.19,25.19-25.19h102.28c13.91,0,25.19,11.28,25.19,25.19v50.39c0,13.91-11.28,25.19-25.19,25.19h-102.28c-13.91,0-25.19-11.28-25.19-25.19Zm16.8-58.78v67.18h119.08v-67.18h-119.08Z"/>
      <path class="cls-1" d="m1590.72,586.84h-50.39c-13.91,0-25.19-11.28-25.19-25.19v-102.28c0-13.91,11.28-25.19,25.19-25.19h50.39c13.91,0,25.19,11.28,25.19,25.19v102.28c0,13.91-11.28,25.19-25.19,25.19Zm-58.78-16.8h67.18v-119.08h-67.18v119.08Z"/>
      <path class="cls-1" d="m945.61,390.97v-50.39c0-13.91,11.28-25.19,25.19-25.19h102.28c13.91,0,25.19,11.28,25.19,25.19v50.39c0,13.91-11.28,25.19-25.19,25.19h-102.28c-13.91,0-25.19-11.28-25.19-25.19Zm16.8-58.78v67.18h119.08v-67.18h-119.08Z"/>
      <path class="cls-1" d="m1182.01,442.12h-50.39c-13.91,0-25.19-11.28-25.19-25.19v-102.28c0-13.91,11.28-25.19,25.19-25.19h50.39c13.91,0,25.19,11.28,25.19,25.19v102.28c0,13.91-11.28,25.19-25.19,25.19Zm-58.78-16.8h67.18v-119.08h-67.18v119.08Z"/>
      <path class="cls-1" d="m1215.36,390.97v-50.39c0-13.91,11.28-25.19,25.19-25.19h102.28c13.91,0,25.19,11.28,25.19,25.19v50.39c0,13.91-11.28,25.19-25.19,25.19h-102.28c-13.91,0-25.19-11.28-25.19-25.19Zm16.8-58.78v67.18h119.08v-67.18h-119.08Z"/>
      <path class="cls-1" d="m1451.76,442.12h-50.39c-13.91,0-25.19-11.28-25.19-25.19v-102.28c0-13.91,11.28-25.19,25.19-25.19h50.39c13.91,0,25.19,11.28,25.19,25.19v102.28c0,13.91-11.28,25.19-25.19,25.19Zm-58.78-16.8h67.18v-119.08h-67.18v119.08Z"/>
      <path class="cls-1" d="m1485.11,390.97v-50.39c0-13.91,11.28-25.19,25.19-25.19h102.28c13.91,0,25.19,11.28,25.19,25.19v50.39c0,13.91-11.28,25.19-25.19,25.19h-102.28c-13.91,0-25.19-11.28-25.19-25.19Zm16.8-58.78v67.18h119.08v-67.18h-119.08Z"/>
      <path class="cls-1" d="m1721.52,442.12h-50.39c-13.91,0-25.19-11.28-25.19-25.19v-102.28c0-13.91,11.28-25.19,25.19-25.19h50.39c13.91,0,25.19,11.28,25.19,25.19v102.28c0,13.91-11.28,25.19-25.19,25.19Zm-58.78-16.8h67.18v-119.08h-67.18v119.08Z"/>
      <path class="cls-1" d="m814.81,246.25v-50.39c0-13.91,11.28-25.19,25.19-25.19h102.28c13.91,0,25.19,11.28,25.19,25.19v50.39c0,13.91-11.28,25.19-25.19,25.19h-102.28c-13.91,0-25.19-11.28-25.19-25.19Zm16.8-58.78v67.18h119.08v-67.18h-119.08Z"/>
      <path class="cls-1" d="m1051.21,297.39h-50.39c-13.91,0-25.19-11.28-25.19-25.19v-102.28c0-13.91,11.28-25.19,25.19-25.19h50.39c13.91,0,25.19,11.28,25.19,25.19v102.28c0,13.91-11.28,25.19-25.19,25.19Zm-58.78-16.8h67.18v-119.08h-67.18v119.08Z"/>
      <path class="cls-1" d="m1084.56,246.25v-50.39c0-13.91,11.28-25.19,25.19-25.19h102.28c13.91,0,25.19,11.28,25.19,25.19v50.39c0,13.91-11.28,25.19-25.19,25.19h-102.28c-13.91,0-25.19-11.28-25.19-25.19Zm16.8-58.78v67.18h119.08v-67.18h-119.08Z"/>
      <path class="cls-1" d="m1320.96,297.39h-50.39c-13.91,0-25.19-11.28-25.19-25.19v-102.28c0-13.91,11.28-25.19,25.19-25.19h50.39c13.91,0,25.19,11.28,25.19,25.19v102.28c0,13.91-11.28,25.19-25.19,25.19Zm-58.78-16.8h67.18v-119.08h-67.18v119.08Z"/>
      <path class="cls-1" d="m1354.31,246.25v-50.39c0-13.91,11.28-25.19,25.19-25.19h102.28c13.91,0,25.19,11.28,25.19,25.19v50.39c0,13.91-11.28,25.19-25.19,25.19h-102.28c-13.91,0-25.19-11.28-25.19-25.19Zm16.8-58.78v67.18h119.08v-67.18h-119.08Z"/>
      <path class="cls-1" d="m1590.72,297.39h-50.39c-13.91,0-25.19-11.28-25.19-25.19v-102.28c0-13.91,11.28-25.19,25.19-25.19h50.39c13.91,0,25.19,11.28,25.19,25.19v102.28c0,13.91-11.28,25.19-25.19,25.19Zm-58.78-16.8h67.18v-119.08h-67.18v119.08Z"/>
      <path class="cls-1" d="m945.61,101.53v-50.39c0-13.91,11.28-25.19,25.19-25.19h102.28c13.91,0,25.19,11.28,25.19,25.19v50.39c0,13.91-11.28,25.19-25.19,25.19h-102.28c-13.91,0-25.19-11.28-25.19-25.19Zm16.8-58.78v67.18h119.08V42.74h-119.08Z"/>
      <path class="cls-1" d="m1182.01,152.67h-50.39c-13.91,0-25.19-11.28-25.19-25.19V25.19c0-13.91,11.28-25.19,25.19-25.19h50.39c13.91,0,25.19,11.28,25.19,25.19v102.28c0,13.91-11.28,25.19-25.19,25.19Zm-58.78-16.8h67.18V16.8h-67.18v119.08Z"/>
      <path class="cls-1" d="m1215.36,101.53v-50.39c0-13.91,11.28-25.19,25.19-25.19h102.28c13.91,0,25.19,11.28,25.19,25.19v50.39c0,13.91-11.28,25.19-25.19,25.19h-102.28c-13.91,0-25.19-11.28-25.19-25.19Zm16.8-58.78v67.18h119.08V42.74h-119.08Z"/>
      <path class="cls-1" d="m1451.76,152.67h-50.39c-13.91,0-25.19-11.28-25.19-25.19V25.19c0-13.91,11.28-25.19,25.19-25.19h50.39c13.91,0,25.19,11.28,25.19,25.19v102.28c0,13.91-11.28,25.19-25.19,25.19Zm-58.78-16.8h67.18V16.8h-67.18v119.08Z"/>
      <path class="cls-1" d="m1485.11,101.53v-50.39c0-13.91,11.28-25.19,25.19-25.19h102.28c13.91,0,25.19,11.28,25.19,25.19v50.39c0,13.91-11.28,25.19-25.19,25.19h-102.28c-13.91,0-25.19-11.28-25.19-25.19Zm16.8-58.78v67.18h119.08V42.74h-119.08Z"/>
      <path class="cls-1" d="m1721.52,152.67h-50.39c-13.91,0-25.19-11.28-25.19-25.19V25.19c0-13.91,11.28-25.19,25.19-25.19h50.39c13.91,0,25.19,11.28,25.19,25.19v102.28c0,13.91-11.28,25.19-25.19,25.19Zm-58.78-16.8h67.18V16.8h-67.18v119.08Z"/>
      <path class="cls-1" d="m0,825.14v-50.39c0-13.91,11.28-25.19,25.19-25.19h102.28c13.91,0,25.19,11.28,25.19,25.19v50.39c0,13.91-11.28,25.19-25.19,25.19H25.19c-13.91,0-25.19-11.28-25.19-25.19Zm16.8-58.78v67.18h119.08v-67.18H16.8Z"/>
      <path class="cls-1" d="m236.4,876.28h-50.39c-13.91,0-25.19-11.28-25.19-25.19v-102.28c0-13.91,11.28-25.19,25.19-25.19h50.39c13.91,0,25.19,11.28,25.19,25.19v102.28c0,13.91-11.28,25.19-25.19,25.19Zm-58.78-16.8h67.18v-119.08h-67.18v119.08Z"/>
      <path class="cls-1" d="m269.75,825.14v-50.39c0-13.91,11.28-25.19,25.19-25.19h102.28c13.91,0,25.19,11.28,25.19,25.19v50.39c0,13.91-11.28,25.19-25.19,25.19h-102.28c-13.91,0-25.19-11.28-25.19-25.19Zm16.8-58.78v67.18h119.08v-67.18h-119.08Z"/>
      <path class="cls-1" d="m506.16,876.28h-50.39c-13.91,0-25.19-11.28-25.19-25.19v-102.28c0-13.91,11.28-25.19,25.19-25.19h50.39c13.91,0,25.19,11.28,25.19,25.19v102.28c0,13.91-11.28,25.19-25.19,25.19Zm-58.78-16.8h67.18v-119.08h-67.18v119.08Z"/>
      <path class="cls-1" d="m539.5,825.14v-50.39c0-13.91,11.28-25.19,25.19-25.19h102.28c13.91,0,25.19,11.28,25.19,25.19v50.39c0,13.91-11.28,25.19-25.19,25.19h-102.28c-13.91,0-25.19-11.28-25.19-25.19Zm16.8-58.78v67.18h119.08v-67.18h-119.08Z"/>
      <path class="cls-1" d="m775.91,876.28h-50.39c-13.91,0-25.19-11.28-25.19-25.19v-102.28c0-13.91,11.28-25.19,25.19-25.19h50.39c13.91,0,25.19,11.28,25.19,25.19v102.28c0,13.91-11.28,25.19-25.19,25.19Zm-58.78-16.8h67.18v-119.08h-67.18v119.08Z"/>
      <path class="cls-1" d="m130.8,680.42v-50.39c0-13.91,11.28-25.19,25.19-25.19h102.28c13.91,0,25.19,11.28,25.19,25.19v50.39c0,13.91-11.28,25.19-25.19,25.19h-102.28c-13.91,0-25.19-11.28-25.19-25.19Zm16.8-58.78v67.18h119.08v-67.18h-119.08Z"/>
      <path class="cls-1" d="m367.2,731.56h-50.39c-13.91,0-25.19-11.28-25.19-25.19v-102.28c0-13.91,11.28-25.19,25.19-25.19h50.39c13.91,0,25.19,11.28,25.19,25.19v102.28c0,13.91-11.28,25.19-25.19,25.19Zm-58.78-16.8h67.18v-119.08h-67.18v119.08Z"/>
      <path class="cls-1" d="m400.55,680.42v-50.39c0-13.91,11.28-25.19,25.19-25.19h102.28c13.91,0,25.19,11.28,25.19,25.19v50.39c0,13.91-11.28,25.19-25.19,25.19h-102.28c-13.91,0-25.19-11.28-25.19-25.19Zm16.8-58.78v67.18h119.08v-67.18h-119.08Z"/>
      <path class="cls-1" d="m636.96,731.56h-50.39c-13.91,0-25.19-11.28-25.19-25.19v-102.28c0-13.91,11.28-25.19,25.19-25.19h50.39c13.91,0,25.19,11.28,25.19,25.19v102.28c0,13.91-11.28,25.19-25.19,25.19Zm-58.78-16.8h67.18v-119.08h-67.18v119.08Z"/>
      <path class="cls-1" d="m670.3,680.42v-50.39c0-13.91,11.28-25.19,25.19-25.19h102.28c13.91,0,25.19,11.28,25.19,25.19v50.39c0,13.91-11.28,25.19-25.19,25.19h-102.28c-13.91,0-25.19-11.28-25.19-25.19Zm16.8-58.78v67.18h119.08v-67.18h-119.08Z"/>
      <path class="cls-1" d="m906.71,731.56h-50.39c-13.91,0-25.19-11.28-25.19-25.19v-102.28c0-13.91,11.28-25.19,25.19-25.19h50.39c13.91,0,25.19,11.28,25.19,25.19v102.28c0,13.91-11.28,25.19-25.19,25.19Zm-58.78-16.8h67.18v-119.08h-67.18v119.08Z"/>
      <path class="cls-1" d="m0,535.7v-50.39c0-13.91,11.28-25.19,25.19-25.19h102.28c13.91,0,25.19,11.28,25.19,25.19v50.39c0,13.91-11.28,25.19-25.19,25.19H25.19c-13.91,0-25.19-11.28-25.19-25.19Zm16.8-58.78v67.18h119.08v-67.18H16.8Z"/>
      <path class="cls-1" d="m236.4,586.84h-50.39c-13.91,0-25.19-11.28-25.19-25.19v-102.28c0-13.91,11.28-25.19,25.19-25.19h50.39c13.91,0,25.19,11.28,25.19,25.19v102.28c0,13.91-11.28,25.19-25.19,25.19Zm-58.78-16.8h67.18v-119.08h-67.18v119.08Z"/>
      <path class="cls-1" d="m269.75,535.7v-50.39c0-13.91,11.28-25.19,25.19-25.19h102.28c13.91,0,25.19,11.28,25.19,25.19v50.39c0,13.91-11.28,25.19-25.19,25.19h-102.28c-13.91,0-25.19-11.28-25.19-25.19Zm16.8-58.78v67.18h119.08v-67.18h-119.08Z"/>
      <path class="cls-1" d="m506.16,586.84h-50.39c-13.91,0-25.19-11.28-25.19-25.19v-102.28c0-13.91,11.28-25.19,25.19-25.19h50.39c13.91,0,25.19,11.28,25.19,25.19v102.28c0,13.91-11.28,25.19-25.19,25.19Zm-58.78-16.8h67.18v-119.08h-67.18v119.08Z"/>
      <path class="cls-1" d="m539.5,535.7v-50.39c0-13.91,11.28-25.19,25.19-25.19h102.28c13.91,0,25.19,11.28,25.19,25.19v50.39c0,13.91-11.28,25.19-25.19,25.19h-102.28c-13.91,0-25.19-11.28-25.19-25.19Zm16.8-58.78v67.18h119.08v-67.18h-119.08Z"/>
      <path class="cls-1" d="m775.91,586.84h-50.39c-13.91,0-25.19-11.28-25.19-25.19v-102.28c0-13.91,11.28-25.19,25.19-25.19h50.39c13.91,0,25.19,11.28,25.19,25.19v102.28c0,13.91-11.28,25.19-25.19,25.19Zm-58.78-16.8h67.18v-119.08h-67.18v119.08Z"/>
      <path class="cls-1" d="m130.8,390.97v-50.39c0-13.91,11.28-25.19,25.19-25.19h102.28c13.91,0,25.19,11.28,25.19,25.19v50.39c0,13.91-11.28,25.19-25.19,25.19h-102.28c-13.91,0-25.19-11.28-25.19-25.19Zm16.8-58.78v67.18h119.08v-67.18h-119.08Z"/>
      <path class="cls-1" d="m367.2,442.12h-50.39c-13.91,0-25.19-11.28-25.19-25.19v-102.28c0-13.91,11.28-25.19,25.19-25.19h50.39c13.91,0,25.19,11.28,25.19,25.19v102.28c0,13.91-11.28,25.19-25.19,25.19Zm-58.78-16.8h67.18v-119.08h-67.18v119.08Z"/>
      <path class="cls-1" d="m400.55,390.97v-50.39c0-13.91,11.28-25.19,25.19-25.19h102.28c13.91,0,25.19,11.28,25.19,25.19v50.39c0,13.91-11.28,25.19-25.19,25.19h-102.28c-13.91,0-25.19-11.28-25.19-25.19Zm16.8-58.78v67.18h119.08v-67.18h-119.08Z"/>
      <path class="cls-1" d="m636.96,442.12h-50.39c-13.91,0-25.19-11.28-25.19-25.19v-102.28c0-13.91,11.28-25.19,25.19-25.19h50.39c13.91,0,25.19,11.28,25.19,25.19v102.28c0,13.91-11.28,25.19-25.19,25.19Zm-58.78-16.8h67.18v-119.08h-67.18v119.08Z"/>
      <path class="cls-1" d="m670.3,390.97v-50.39c0-13.91,11.28-25.19,25.19-25.19h102.28c13.91,0,25.19,11.28,25.19,25.19v50.39c0,13.91-11.28,25.19-25.19,25.19h-102.28c-13.91,0-25.19-11.28-25.19-25.19Zm16.8-58.78v67.18h119.08v-67.18h-119.08Z"/>
      <path class="cls-1" d="m906.71,442.12h-50.39c-13.91,0-25.19-11.28-25.19-25.19v-102.28c0-13.91,11.28-25.19,25.19-25.19h50.39c13.91,0,25.19,11.28,25.19,25.19v102.28c0,13.91-11.28,25.19-25.19,25.19Zm-58.78-16.8h67.18v-119.08h-67.18v119.08Z"/>
      <path class="cls-1" d="m0,246.25v-50.39c0-13.91,11.28-25.19,25.19-25.19h102.28c13.91,0,25.19,11.28,25.19,25.19v50.39c0,13.91-11.28,25.19-25.19,25.19H25.19c-13.91,0-25.19-11.28-25.19-25.19Zm16.8-58.78v67.18h119.08v-67.18H16.8Z"/>
      <path class="cls-1" d="m236.4,297.39h-50.39c-13.91,0-25.19-11.28-25.19-25.19v-102.28c0-13.91,11.28-25.19,25.19-25.19h50.39c13.91,0,25.19,11.28,25.19,25.19v102.28c0,13.91-11.28,25.19-25.19,25.19Zm-58.78-16.8h67.18v-119.08h-67.18v119.08Z"/>
      <path class="cls-1" d="m269.75,246.25v-50.39c0-13.91,11.28-25.19,25.19-25.19h102.28c13.91,0,25.19,11.28,25.19,25.19v50.39c0,13.91-11.28,25.19-25.19,25.19h-102.28c-13.91,0-25.19-11.28-25.19-25.19Zm16.8-58.78v67.18h119.08v-67.18h-119.08Z"/>
      <path class="cls-1" d="m506.16,297.39h-50.39c-13.91,0-25.19-11.28-25.19-25.19v-102.28c0-13.91,11.28-25.19,25.19-25.19h50.39c13.91,0,25.19,11.28,25.19,25.19v102.28c0,13.91-11.28,25.19-25.19,25.19Zm-58.78-16.8h67.18v-119.08h-67.18v119.08Z"/>
      <path class="cls-1" d="m539.5,246.25v-50.39c0-13.91,11.28-25.19,25.19-25.19h102.28c13.91,0,25.19,11.28,25.19,25.19v50.39c0,13.91-11.28,25.19-25.19,25.19h-102.28c-13.91,0-25.19-11.28-25.19-25.19Zm16.8-58.78v67.18h119.08v-67.18h-119.08Z"/>
      <path class="cls-1" d="m775.91,297.39h-50.39c-13.91,0-25.19-11.28-25.19-25.19v-102.28c0-13.91,11.28-25.19,25.19-25.19h50.39c13.91,0,25.19,11.28,25.19,25.19v102.28c0,13.91-11.28,25.19-25.19,25.19Zm-58.78-16.8h67.18v-119.08h-67.18v119.08Z"/>
      <path class="cls-1" d="m130.8,101.53v-50.39c0-13.91,11.28-25.19,25.19-25.19h102.28c13.91,0,25.19,11.28,25.19,25.19v50.39c0,13.91-11.28,25.19-25.19,25.19h-102.28c-13.91,0-25.19-11.28-25.19-25.19Zm16.8-58.78v67.18h119.08V42.74h-119.08Z"/>
      <path class="cls-1" d="m367.2,152.67h-50.39c-13.91,0-25.19-11.28-25.19-25.19V25.19c0-13.91,11.28-25.19,25.19-25.19h50.39c13.91,0,25.19,11.28,25.19,25.19v102.28c0,13.91-11.28,25.19-25.19,25.19Zm-58.78-16.8h67.18V16.8h-67.18v119.08Z"/>
      <path class="cls-1" d="m400.55,101.53v-50.39c0-13.91,11.28-25.19,25.19-25.19h102.28c13.91,0,25.19,11.28,25.19,25.19v50.39c0,13.91-11.28,25.19-25.19,25.19h-102.28c-13.91,0-25.19-11.28-25.19-25.19Zm16.8-58.78v67.18h119.08V42.74h-119.08Z"/>
      <path class="cls-1" d="m636.96,152.67h-50.39c-13.91,0-25.19-11.28-25.19-25.19V25.19c0-13.91,11.28-25.19,25.19-25.19h50.39c13.91,0,25.19,11.28,25.19,25.19v102.28c0,13.91-11.28,25.19-25.19,25.19Zm-58.78-16.8h67.18V16.8h-67.18v119.08Z"/>
      <path class="cls-1" d="m670.3,101.53v-50.39c0-13.91,11.28-25.19,25.19-25.19h102.28c13.91,0,25.19,11.28,25.19,25.19v50.39c0,13.91-11.28,25.19-25.19,25.19h-102.28c-13.91,0-25.19-11.28-25.19-25.19Zm16.8-58.78v67.18h119.08V42.74h-119.08Z"/>
      <path class="cls-1" d="m906.71,152.67h-50.39c-13.91,0-25.19-11.28-25.19-25.19V25.19c0-13.91,11.28-25.19,25.19-25.19h50.39c13.91,0,25.19,11.28,25.19,25.19v102.28c0,13.91-11.28,25.19-25.19,25.19Zm-58.78-16.8h67.18V16.8h-67.18v119.08Z"/>
    </g>
  </g>
</svg>