<?xml version="1.0" encoding="UTF-8"?>
<svg id="Layer_2" data-name="Layer 2" xmlns="http://www.w3.org/2000/svg" viewBox="0 0 100 100">
  <defs>
    <style>
      .cls-1 {
        fill: #002232;
      }

      .cls-2 {
        fill: #32ee88;
      }
    </style>
  </defs>
  <rect class="cls-1" width="100" height="100" rx="25" ry="25"/>
  <path class="cls-2" d="m73.36,22.77h-3.79c-1.65-7.83-8.69-13.46-16.87-13.47h-6.89c-8.18.01-15.23,5.63-16.87,13.47h-3.79c-9.5.01-17.21,7.54-17.22,16.83v33.67c.01,9.29,7.71,16.82,17.22,16.83h48.21c9.5-.01,17.21-7.54,17.22-16.83v-33.67c-.01-9.29-7.71-16.82-17.22-16.83Zm-27.55-6.73h6.89c4.36.02,8.24,2.71,9.7,6.73h-26.28c1.45-4.02,5.33-6.72,9.7-6.73Zm-20.66,13.47h48.21c5.71,0,10.33,4.52,10.33,10.1v10.1H14.82v-10.1c0-5.58,4.63-10.1,10.33-10.1Zm48.21,53.87H25.15c-5.71,0-10.33-4.52-10.33-10.1v-16.83h30.99v3.37c0,1.86,1.54,3.37,3.44,3.37s3.44-1.51,3.44-3.37v-3.37h30.99v16.83c0,5.58-4.63,10.1-10.33,10.1Z"/>
</svg>