<?xml version="1.0" encoding="UTF-8"?>
<svg id="Layer_2" data-name="Layer 2" xmlns="http://www.w3.org/2000/svg" viewBox="0 0 100 100">
  <defs>
    <style>
      .cls-1 {
        fill: #002232;
      }

      .cls-2 {
        fill: #32ee88;
      }
    </style>
  </defs>
  <g id="Layer_1-2" data-name="Layer 1-2">
    <rect class="cls-1" width="100" height="100" rx="25" ry="25"/>
  </g>
  <path class="cls-2" d="m12.49,25.13h75.19c1.34,0,2.56.55,3.44,1.43.88.88,1.43,2.1,1.43,3.44v51.64c0,1.01-.31,1.95-.84,2.73-.1.25-.25.49-.46.69-.14.13-.29.24-.45.32-.85.71-1.93,1.13-3.12,1.13H12.49c-1.34,0-2.56-.55-3.44-1.43-.88-.88-1.43-2.1-1.43-3.44V30c0-1.34.55-2.56,1.43-3.44.88-.88,2.1-1.43,3.44-1.43h0Zm-1.13,54.46l26.35-26.4L11.36,31.72v47.87h0Zm29.25-24.03l-27.17,27.22h73.06l-25.96-27.21-8.56,7.29h0c-.67.57-1.68.61-2.39.03l-8.98-7.32h0Zm22.77-2.41l25.43,26.66V31.48l-25.43,21.65h0ZM13.75,28.86l36.99,30.14,35.4-30.14H13.75Z"/>
</svg>