<?xml version="1.0" encoding="utf-8"?>
<!-- Generator: Adobe Illustrator 27.6.1, SVG Export Plug-In . SVG Version: 6.00 Build 0)  -->
<svg version="1.1" id="Layer_2_00000035515450725131194850000003798628451111973799_"
	 xmlns="http://www.w3.org/2000/svg" xmlns:xlink="http://www.w3.org/1999/xlink" x="0px" y="0px" viewBox="0 0 100 100"
	 style="enable-background:new 0 0 100 100;" xml:space="preserve">
<style type="text/css">
	.st0{fill:#002232;}
	.st1{fill:#32EE88;}
	.st2{display:none;fill:#32EE88;}
</style>
<path class="st0" d="M100,25v50c0,13.8-11.2,25-25,25H25C11.2,100,0,88.8,0,75V25C0,11.2,11.2,0,25,0h50C88.8,0,100,11.2,100,25z"/>
<path class="st1" d="M97.1,49.1c-0.2,1.1-0.7,2-1.4,2.8c-0.7,0.8-1.5,1.4-2.5,1.8c-1.5,0.6-3.4,0.6-5.2-0.4v35.5h-4.3v0.1H63.7V70.1
	c0-4-1.6-7.7-4.1-10.3c-2.2-2.3-5.1-3.9-8.4-4.2h-2.9c-1.6,0.2-3.2,0.7-4.6,1.4c-1.4,0.7-2.7,1.7-3.8,2.8c-2.5,2.7-4.1,6.3-4.1,10.3
	v18.9h-2.9V70c0-4.9,1.9-9.3,5-12.5c3.1-3.2,7.3-5.2,11.9-5.2c4.6,0,8.9,2,11.9,5.2c3.1,3.2,5,7.6,5,12.5v15.8h16.9V51.3
	c0-0.8-30.3-26-33.7-28.7c-3.5,2.8-34.4,27.8-34.4,28.9v34.4h17.4v3.1H15.5l-4.3,0V53.2c-1.8,0.7-3.5,0.8-4.9,0.2
	c-1.1-0.4-2-1.1-2.7-2c-0.7-0.9-1.1-2-1.2-3.2c-0.2-1.9,0.3-4,1.8-6c0.1-0.1,0.2-0.2,0.3-0.3L48.5,5.8c0.6-0.5,1.5-0.6,2.1-0.1
	l44.2,36.1c0.1,0.1,0.1,0.1,0.2,0.2C97.1,44.3,97.6,46.9,97.1,49.1z"/>
<path class="st2" d="M73.4,22.8h-3.8c-1.7-7.8-8.7-13.5-16.9-13.5h-6.9c-8.2,0-15.2,5.6-16.9,13.5h-3.8c-9.5,0-17.2,7.5-17.2,16.8
	v33.7c0,9.3,7.7,16.8,17.2,16.8h48.2c9.5,0,17.2-7.5,17.2-16.8V39.6C90.6,30.3,82.9,22.8,73.4,22.8z M45.8,16h6.9
	c4.4,0,8.2,2.7,9.7,6.7H36.1C37.6,18.8,41.5,16.1,45.8,16L45.8,16z M25.2,29.5h48.2c5.7,0,10.3,4.5,10.3,10.1v10.1H14.8V39.6
	C14.8,34,19.5,29.5,25.2,29.5z M73.4,83.4H25.1c-5.7,0-10.3-4.5-10.3-10.1V56.5h31v3.4c0,1.9,1.5,3.4,3.4,3.4s3.4-1.5,3.4-3.4v-3.4
	h31v16.8C83.7,78.9,79,83.4,73.4,83.4L73.4,83.4z"/>
</svg>
