<?xml version="1.0" encoding="UTF-8"?>
<svg id="Layer_2" data-name="Layer 2" xmlns="http://www.w3.org/2000/svg" viewBox="0 0 100 100">
  <defs>
    <style>
      .cls-1 {
        fill: #32ee88;
      }
    </style>
  </defs>
  <g id="Layer_2-2" data-name="Layer 2">
    <path class="cls-1" d="m25,.2h50c13.81,0,25,11.17,25,24.95v49.9c0,13.78-11.19,24.95-25,24.95H25c-13.81,0-25-11.17-25-24.95V25.15C0,11.37,11.19.2,25,.2Z"/>
    <path d="m77.09,17.2h-4.14c-1.76-8.86-9.27-15.22-17.98-15.23h-7.34c-8.72.01-16.23,6.37-17.98,15.23h-4.14c-10.17.01-18.41,8.57-18.42,19.13v38.26c.01,10.56,8.25,19.12,18.42,19.13h51.58c10.17-.01,18.41-8.57,18.42-19.13v-38.26c-.01-10.56-8.25-19.12-18.42-19.13Zm-29.5-7.53h7.43c4.7.02,8.89,3.1,10.46,7.71h-28.34c1.57-4.6,5.75-7.69,10.46-7.71Zm-22.02,15.23h51.64c6.1,0,11.05,5.14,11.05,11.47v11.47H14.51v-11.47c0-6.33,4.95-11.47,11.05-11.47Zm51.64,61.29H25.56c-6.1,0-11.05-5.14-11.05-11.47v-19.18h33.16v3.74c0,1.84,1.22,3.48,2.96,3.83,2.38.48,4.46-1.38,4.46-3.75v-3.82h33.16v19.18c0,6.33-4.95,11.47-11.05,11.47ZM25,0h50c13.81,0,25,11.19,25,25v50c0,13.81-11.19,25-25,25H25c-13.81,0-25-11.19-25-25V25C0,11.19,11.19,0,25,0Z"/>
  </g>
</svg>