<?xml version="1.0" encoding="UTF-8"?>
<svg id="Layer_2" data-name="Layer 2" xmlns="http://www.w3.org/2000/svg" viewBox="0 0 100 100">
  <defs>
    <style>
      .cls-1 {
        fill: #002232;
      }

      .cls-2 {
        fill: #32ee88;
      }
    </style>
  </defs>
  <g id="Layer_1-2" data-name="Layer 1-2">
    <g>
      <rect class="cls-1" width="100" height="100" rx="25" ry="25"/>
      <path class="cls-2" d="m31.64,8.02h35.69c2.64,0,5.04.92,6.78,2.41,1.74,1.49,2.82,3.54,2.82,5.8v64.51c0,2.26-1.08,4.31-2.82,5.8-1.74,1.49-4.14,2.41-6.78,2.41H31.64c-2.64,0-5.04-.92-6.78-2.41-1.74-1.49-2.82-3.54-2.82-5.8V16.23c0-2.26,1.08-4.31,2.82-5.8,1.74-1.49,4.14-2.41,6.78-2.41h0Zm12.67,74.43c-.64,0-1.15-.44-1.15-.99s.52-.99,1.15-.99h10.56c.64,0,1.15.44,1.15.99s-.52.99-1.15.99h-10.56Zm-.99-69.71c1.01,0,1.83.7,1.83,1.57s-.82,1.57-1.83,1.57-1.83-.7-1.83-1.57c0-.86.82-1.57,1.83-1.57h0Zm6.16,0c1.01,0,1.83.7,1.83,1.57s-.82,1.57-1.83,1.57-1.83-.7-1.83-1.57.82-1.57,1.83-1.57h0Zm6.16,0c1.01,0,1.83.7,1.83,1.57s-.82,1.57-1.83,1.57-1.83-.7-1.83-1.57.82-1.57,1.83-1.57h0Zm-31.29,60.68h50.28V20.67H24.35v52.75h0Zm50.28,1.98H24.35v5.35c0,1.71.82,3.27,2.14,4.41,1.32,1.13,3.15,1.83,5.15,1.83h35.69c2,0,3.83-.7,5.15-1.83,1.32-1.13,2.14-2.69,2.14-4.41v-5.35h0ZM24.35,18.7h50.28v-2.46c0-1.71-.82-3.27-2.14-4.41-1.32-1.13-3.15-1.83-5.16-1.83H31.64c-2,0-3.83.7-5.15,1.83-1.32,1.13-2.14,2.69-2.14,4.41v2.46h0Z"/>
    </g>
  </g>
</svg>