<?xml version="1.0" encoding="utf-8"?>
<!-- Generator: Adobe Illustrator 27.6.1, SVG Export Plug-In . SVG Version: 6.00 Build 0)  -->
<svg version="1.1" id="Layer_2_00000035515450725131194850000003798628451111973799_"
	 xmlns="http://www.w3.org/2000/svg" xmlns:xlink="http://www.w3.org/1999/xlink" x="0px" y="0px" viewBox="0 0 100 100"
	 style="enable-background:new 0 0 100 100;" xml:space="preserve">
<style type="text/css">
	.st0{fill:#002232;}
	.st1{display:none;fill:#32EE88;}
	.st2{fill-rule:evenodd;clip-rule:evenodd;fill:#32EE88;}
</style>
<path class="st0" d="M100,25v50c0,13.8-11.2,25-25,25H25C11.2,100,0,88.8,0,75V25C0,11.2,11.2,0,25,0h50C88.8,0,100,11.2,100,25z"/>
<path class="st1" d="M97.1,49.1c-0.2,1.1-0.7,2-1.4,2.8c-0.7,0.8-1.5,1.4-2.5,1.8c-1.5,0.6-3.4,0.6-5.2-0.4v35.5h-4.3v0.1h-20V70.1
	c0-4-1.6-7.7-4.1-10.3c-2.2-2.3-5.1-3.9-8.4-4.2h-2.9c-1.6,0.2-3.2,0.7-4.6,1.4c-1.4,0.7-2.7,1.7-3.8,2.8c-2.5,2.7-4.1,6.3-4.1,10.3
	V89h-2.9V70c0-4.9,1.9-9.3,5-12.5s7.3-5.2,11.9-5.2s8.9,2,11.9,5.2c3.1,3.2,5,7.6,5,12.5v15.8h16.9V51.3c0-0.8-30.3-26-33.7-28.7
	c-3.5,2.8-34.4,27.8-34.4,28.9v34.4h17.4V89H15.5h-4.3V53.2c-1.8,0.7-3.5,0.8-4.9,0.2c-1.1-0.4-2-1.1-2.7-2s-1.1-2-1.2-3.2
	c-0.2-1.9,0.3-4,1.8-6c0.1-0.1,0.2-0.2,0.3-0.3l44-36.1c0.6-0.5,1.5-0.6,2.1-0.1l44.2,36.1c0.1,0.1,0.1,0.1,0.2,0.2
	C97.1,44.3,97.6,46.9,97.1,49.1z"/>
<path class="st1" d="M73.4,22.8h-3.8C67.9,15,60.9,9.3,52.7,9.3h-6.9c-8.2,0-15.2,5.6-16.9,13.5h-3.8c-9.5,0-17.2,7.5-17.2,16.8
	v33.7c0,9.3,7.7,16.8,17.2,16.8h48.2c9.5,0,17.2-7.5,17.2-16.8V39.6C90.6,30.3,82.9,22.8,73.4,22.8z M45.8,16h6.9
	c4.4,0,8.2,2.7,9.7,6.7H36.1C37.6,18.8,41.5,16.1,45.8,16L45.8,16z M25.2,29.5h48.2c5.7,0,10.3,4.5,10.3,10.1v10.1H14.8V39.6
	C14.8,34,19.5,29.5,25.2,29.5z M73.4,83.4H25.1c-5.7,0-10.3-4.5-10.3-10.1V56.5h31v3.4c0,1.9,1.5,3.4,3.4,3.4s3.4-1.5,3.4-3.4v-3.4
	h31v16.8C83.7,78.9,79,83.4,73.4,83.4L73.4,83.4z"/>
<g>
	<path class="st2" d="M49.9,3.3C66.2,13.4,81,18.2,93.6,17.1C95.9,60.8,79.3,86.5,50,97.2C21.8,87.1,5,62.6,6.3,16.4
		C21.2,17.1,35.7,14,49.9,3.3L49.9,3.3z M32.8,38.5c7.7-8.3,16.6-12.8,23.3-5.4c1.8,0.1,3.3,0.6,4.6,1.9c2.7,2.5,3.2,7.2,1.9,11v3.3
		c0.9,0.6,1.4,1.6,1.6,2.7c0.2,0.7,0.2,1.6,0.1,2.4c-0.1,0.8-0.3,1.6-0.6,2.2c-0.5,0.9-1.2,1.6-2.2,1.7c-1,1-1.9,2.1-2.7,3.1
		c-0.9,1.1-1.7,2.2-2.3,3.1c-0.4,0.7-0.3,1.1-0.1,1.6c0.1,0.3,0.2,0.5,0.2,0.8c1.7,0.4,3.2,0.6,4.6,0.9c7.6,1.4,10.6,1.9,11.3,9.5
		C84,64.9,89.9,46.4,88.6,20.9c-11.2,1-24.3-3.3-38.7-12.2v0C37.4,18.2,24.5,21,11.3,20.3c-0.7,26.4,5.2,44.8,16.3,57
		c0.6-7.6,3.6-8.1,11.3-9.5c1.4-0.3,2.9-0.5,4.6-0.9c0.1-0.2,0.1-0.4,0.2-0.6c0.2-0.5,0.4-1-0.2-1.8c-0.5-0.9-1.3-2-2.3-3.1
		c-0.8-1-1.8-2.1-2.7-3.1c-1-0.1-1.7-0.8-2.2-1.7c-0.3-0.6-0.5-1.4-0.6-2.2c-0.1-0.8,0-1.6,0.1-2.4c0.3-1.2,0.8-2.2,1.6-2.7
		l-1.1-0.7C36,45.3,36.9,39.6,32.8,38.5L32.8,38.5L32.8,38.5z M70.5,79.3c-0.3-7.8-2.7-8.3-9.7-9.5c-1.6-0.3-3.3-0.6-5.4-1.1
		c-0.5-0.1-0.8-0.5-0.8-1c0-0.4-0.1-0.7-0.2-1.1c-0.3-1-0.5-1.8,0.4-3.2c0.6-1,1.4-2.1,2.4-3.3s2-2.4,3.2-3.5
		c0.2-0.2,0.5-0.3,0.8-0.3h0c0.3,0,0.5-0.3,0.7-0.6c0.2-0.4,0.4-0.9,0.4-1.5c0.1-0.6,0-1.2-0.1-1.8c-0.2-0.8-0.5-1.4-0.9-1.5
		c-0.5-0.1-0.8-0.5-0.8-1v-4.8l0,0c-0.2-1.3-0.5-2.5-1.1-3.4c-0.7-0.8-1.6-1.5-2.8-2.4l-0.1-0.1c-0.3-0.2-0.5-0.4-0.8-0.5
		c-4.1,2.6-6.1,2-9.4,2.5c-3,0.5-5.5,1.6-6.7,3.6v5.1c0,0.5-0.3,0.9-0.8,1c-0.4,0.1-0.7,0.7-0.9,1.5c-0.1,0.6-0.2,1.2-0.1,1.8
		c0.1,0.6,0.2,1.1,0.4,1.5c0.2,0.4,0.4,0.6,0.7,0.6h0.1c0.3,0,0.6,0.1,0.8,0.3c1.1,1.1,2.2,2.4,3.2,3.5c1,1.2,1.8,2.3,2.4,3.3
		c1,1.6,0.7,2.6,0.4,3.5c-0.1,0.3-0.2,0.5-0.2,0.8c0,0.5-0.4,0.9-0.9,1c-2,0.4-3.8,0.8-5.3,1c-7,1.3-9.4,1.7-9.7,9.6
		c5.7,5.6,12.6,9.7,20.5,12.5C58,88.9,64.9,84.8,70.5,79.3L70.5,79.3z"/>
</g>
</svg>
