<?xml version="1.0" encoding="UTF-8"?>
<svg id="Layer_2" data-name="Layer 2" xmlns="http://www.w3.org/2000/svg" viewBox="0 0 250 250">
  <defs>
    <style>
      .cls-1 {
        fill: #002232;
      }

      .cls-2 {
        fill: #32ee88;
      }
    </style>
  </defs>
  <g id="Layer_1-2" data-name="Layer 1">
    <g>
      <rect class="cls-1" width="250" height="250" rx="50" ry="50"/>
      <path class="cls-2" d="m180.74,85.78h-40.09c-6.5,0-11.77,5.26-11.77,11.76v21.51h-42.75v11.9h18.95v21.37h-23.92c-6.5,0-11.76-5.27-11.76-11.77v-31.11c0-6.5,5.26-11.76,11.76-11.76h35.82v-11.9h-39.87c-10.83,0-19.61,8.77-19.61,19.61v39.22c0,10.82,8.77,19.61,19.61,19.61h39.87v-33.27h11.9v21.51c0,6.5,5.27,11.76,11.77,11.76h40.09c6.5,0,11.76-5.26,11.76-11.76v-54.91c0-6.5-5.26-11.76-11.76-11.76Zm-.12,66.54h-39.83v-21.37h19.91v-11.9h-19.91v-21.37h39.83v54.64Z"/>
    </g>
  </g>
</svg>