<?xml version="1.0" encoding="UTF-8"?>
<svg id="Layer_2" data-name="Layer 2" xmlns="http://www.w3.org/2000/svg" viewBox="0 0 100 100">
  <defs>
    <style>
      .cls-1 {
        fill: #ebf4f7;
      }

      .cls-2 {
        fill: #002232;
      }
    </style>
  </defs>
  <g id="Layer_1-2" data-name="Layer 1">
    <g>
      <rect class="cls-2" width="100" height="100" rx="25" ry="25"/>
      <g>
        <path class="cls-1" d="m63.64,67.95c4.82,0,9.37,2.04,12.81,5.73l8.52,9.14s.04.08.03.13H15s0-.1.03-.13l8.52-9.14c3.44-3.7,7.99-5.73,12.81-5.73h27.28m0-5h-27.28c-6.18,0-12.1,2.63-16.47,7.32l-8.52,9.14c-2.93,3.15-.86,8.54,3.29,8.54h70.67c4.15,0,6.23-5.39,3.29-8.54l-8.52-9.14c-4.37-4.69-10.29-7.32-16.47-7.32h0Z"/>
        <g>
          <path class="cls-1" d="m74.88,36.59l-3.39,3.48h-.09l-2.34,5c-.96,3-2.62,5.75-4.91,8.04-3.79,3.78-8.81,5.86-14.15,5.86-8.71,0-16.15-5.61-18.88-13.4l-2.54-5.47-3.46-3.54c-.08.79-.12,1.6-.12,2.41,0,13.81,11.2,25,25,25,6.91,0,13.15-2.8,17.68-7.32,4.52-4.53,7.32-10.77,7.32-17.68,0-.8-.04-1.6-.12-2.38Z"/>
          <path class="cls-1" d="m50,17.48l24.14,10.2.59.25.63.09c.09.01.24.03.32.26.07.19,0,.3-.05.37l-3.73,3.83c-.22-.24-.45-.47-.68-.7-5.67-5.67-13.21-8.79-21.22-8.79s-15.55,3.12-21.21,8.79c-.23.23-.45.46-.67.69l-3.75-3.83c-.06-.07-.12-.18-.05-.37.08-.23.23-.25.32-.26l.63-.09.59-.25,24.13-10.2m0-5.43l-26.08,11.02c-4.29.63-6.13,5.79-3.2,8.99l7.86,8.04c1.05-1.74,2.32-3.35,3.75-4.78,4.52-4.53,10.77-7.33,17.67-7.33s13.15,2.8,17.68,7.33c1.42,1.42,2.68,3.02,3.72,4.75h.09l7.8-8.01c2.92-3.2,1.08-8.36-3.2-8.99l-26.09-11.02h0Z"/>
        </g>
      </g>
    </g>
  </g>
</svg>